<svg xmlns="http://www.w3.org/2000/svg" version="1.1" xmlns:xlink="http://www.w3.org/1999/xlink" xmlns:svgjs="http://svgjs.dev/svgjs" width="100%" height="100%" viewBox="0 0 1000 600"><rect width="1000" height="600" x="0" y="0" fill="#f96167"/><g><rect width="333.3333333333333" height="333.3333333333333" rx="13.333333333333334" ry="13.333333333333334" y="283.95123765895005" fill="#fce77d" transform="matrix(0.47759317554882524,0,0,0.47759317554882524,0,84.78795164417689)" x="261.7289123535156"/><path d="M319.9744598391335 450.6179109746665L319.9744598391335 450.6179109746665Q319.9744598391335 431.33588192966675 323.68254234778726 417.18068000532753Q327.3906248564411 403.02547808098825 334.12966176347277 393.8681264943997Q340.86869867050444 384.6785307120838 350.2517596271849 380.16434331024436Q359.6670647795928 375.6179117126776 371.27497524146554 375.6179117126776L371.27497524146554 375.6179117126776Q382.6571763332463 375.6179117126776 392.1692140728365 380.16434331024436Q401.6812518124267 384.6785307120838 408.42028871945837 393.8681264943997Q415.15932562649004 403.02547808098825 418.99638491805354 417.18068000532753Q422.80120001388957 431.33588192966675 422.80120001388957 450.6179109746665L422.80120001388957 450.6179109746665Q422.80120001388957 469.89994001966625 418.99638491805354 484.05514194400547Q415.15932562649004 498.21034386834475 408.42028871945837 507.496672237843Q401.6812518124267 516.7830006073411 392.1692140728365 521.2004554219983Q382.6571763332463 525.6179102366555 371.27497524146554 525.6179102366555L371.27497524146554 525.6179102366555Q359.6670647795928 525.6179102366555 350.2517596271849 521.2004554219983Q340.86869867050444 516.7830006073411 334.12966176347277 507.496672237843Q327.3906248564411 498.21034386834475 323.68254234778726 484.05514194400547Q319.9744598391335 469.89994001966625 319.9744598391335 450.6179109746665ZM339.4821982542252 450.6179109746665L339.4821982542252 450.6179109746665Q339.4821982542252 478.92831482334503 347.12407264162476 494.0185984237796Q354.79819122475175 509.1088820242142 370.8235565012816 509.1088820242142L370.8235565012816 509.1088820242142Q387.07463114790346 509.1088820242142 395.2001684712144 494.0185984237796Q403.32570579452533 478.92831482334503 403.32570579452533 450.6179109746665L403.32570579452533 450.6179109746665Q403.32570579452533 422.30750712598797 395.2001684712144 407.2172235255534Q387.07463114790346 392.1269399251188 370.8235565012816 392.1269399251188L370.8235565012816 392.1269399251188Q354.79819122475175 392.1269399251188 347.12407264162476 407.2172235255534Q339.4821982542252 422.30750712598797 339.4821982542252 450.6179109746665ZM529.3682668930269 422.7589258661719L529.3682668930269 422.7589258661719Q529.3682668930269 435.9790461144159 522.4035206159033 446.1037235728271Q515.4387743387796 456.1961568355109 503.60515450681487 461.7744026963553L503.60515450681487 461.7744026963553Q507.0875276453767 467.3204043614723 511.3760056771241 474.4141274215056Q515.6644837088716 481.507850481539 520.0819385235287 489.5044110219402Q524.4993933381859 497.5009715623414 528.7878713699333 505.981195038654Q533.0763494016808 514.4614185149667 536.816676106062 522.5869558382776L536.816676106062 522.5869558382776L516.373856014875 522.5869558382776Q509.40910973775124 505.88446245147173 501.1545956315307 490.53622528521777Q492.93232572103744 475.22023231469126 485.25820713791046 465.70819457510106L485.25820713791046 465.70819457510106Q483.8717067216312 465.93390394519304 481.19543847625505 465.93390394519304Q478.5191702308788 465.93390394519304 477.6163327505109 465.93390394519304L477.6163327505109 465.93390394519304L461.36525810388906 465.93390394519304L461.36525810388906 522.5869558382776L442.0832290588893 522.5869558382776L442.0832290588893 380.97044820343Q445.56560219745114 380.0353665273347 450.0797895992905 379.35823841705877Q454.6262211968574 378.64886611105544 459.3661179687888 378.2941799580538Q464.1382589364475 377.9394938050521 468.78142312119667 377.7137844349602Q473.42458730594575 377.4880750648682 477.1326698145995 377.4880750648682L477.1326698145995 377.4880750648682Q503.1537357666309 377.4880750648682 516.2448792319652 388.87027615664897Q529.3682668930269 400.2524772484297 529.3682668930269 422.7589258661719ZM478.7771237966982 393.964859081582L478.7771237966982 393.964859081582Q473.42458730594575 393.964859081582 468.426736968195 394.09383586449167Q463.42888663044425 394.190568451674 461.36525810388906 394.67423138758534L461.36525810388906 394.67423138758534L461.36525810388906 450.1664922344826L473.65029667603767 450.1664922344826Q482.0015433694406 450.1664922344826 488.64384768929006 449.0057011882953Q495.25390781341196 447.844910142108 499.99380458534336 444.68497896082044Q504.7659455530022 441.5572919752603 507.31323701546864 436.10802289732555Q509.8605284779352 430.6587538193908 509.8605284779352 421.8238441900766L509.8605284779352 421.8238441900766Q509.8605284779352 413.4725974966737 507.31323701546864 408.1200610059213Q504.7659455530022 402.7997687108963 500.574200108437 399.6720817253361Q496.4146988595993 396.5121505440485 490.7074762158452 395.25462691067895Q485.03249776781854 393.964859081582 478.7771237966982 393.964859081582Z " fill="#f96167" transform="matrix(0.47759317554882524,0,0,0.47759317554882524,0,84.78795164417689)"/><path d="M678.3955718761639 456.99084857815075L678.3955718761639 456.99084857815075Q678.3955718761639 439.3472609049052 681.7885695056342 426.39486125849254Q685.1815671351045 413.44246161207985 691.3479715225766 405.0632326836489Q697.5143759100487 396.6544994280051 706.1001351289692 392.5238936182152Q714.7153986751025 388.3637834812125 725.3369564717051 388.3637834812125L725.3369564717051 388.3637834812125Q735.7519839778182 388.3637834812125 744.4557605055899 392.5238936182152Q753.1595370333614 396.6544994280051 759.3259414208336 405.0632326836489Q765.4923458083057 413.44246161207985 769.0033607466271 426.39486125849254Q772.4848713577358 439.3472609049052 772.4848713577358 456.99084857815075L772.4848713577358 456.99084857815075Q772.4848713577358 474.63443625139627 769.0033607466271 487.58683589780895Q765.4923458083057 500.53923554422164 759.3259414208336 509.03648178150377Q753.1595370333614 517.533728018786 744.4557605055899 521.5758208469374Q735.7519839778182 525.6179136750891 725.3369564717051 525.6179136750891L725.3369564717051 525.6179136750891Q714.7153986751025 525.6179136750891 706.1001351289692 521.5758208469374Q697.5143759100487 517.533728018786 691.3479715225766 509.03648178150377Q685.1815671351045 500.53923554422164 681.7885695056342 487.58683589780895Q678.3955718761639 474.63443625139627 678.3955718761639 456.99084857815075ZM696.2456898398989 456.99084857815075L696.2456898398989 456.99084857815075Q696.2456898398989 482.8956478709761 703.2382153893291 496.70367300655954Q710.2602452659719 510.511698142143 724.923895890726 510.511698142143L724.923895890726 510.511698142143Q739.7940768059698 510.511698142143 747.2291672635916 496.70367300655954Q754.6642577212135 482.8956478709761 754.6642577212135 456.99084857815075L754.6642577212135 456.99084857815075Q754.6642577212135 431.0860492853254 747.2291672635916 417.27802414974195Q739.7940768059698 403.4699990141585 724.923895890726 403.4699990141585L724.923895890726 403.4699990141585Q710.2602452659719 403.4699990141585 703.2382153893291 417.27802414974195Q696.2456898398989 431.0860492853254 696.2456898398989 456.99084857815075ZM793.5214566604516 522.8445069170873L793.5214566604516 427.0439564571738Q803.080858677394 424.7131146073638 812.551747712698 423.41492421000123Q821.9931324207892 422.1462381398515 830.2838483675819 422.1462381398515L830.2838483675819 422.1462381398515Q850.0222432729352 422.1462381398515 860.1127231797077 432.35473535547516Q870.2032030864801 442.53372824388606 870.2032030864801 465.0750342344539L870.2032030864801 465.0750342344539L870.2032030864801 522.8445069170873L852.7956500309369 522.8445069170873L852.7956500309369 468.2615015734347Q852.7956500309369 458.7020995564923 851.0843990525954 452.7422254595097Q849.4026524014666 446.7823513625271 846.3046980441242 443.50737104190796Q843.2362480139946 440.202886394076 838.8696075865023 438.93420032392623Q834.5324714862229 437.6655142537765 829.4282228784111 437.6655142537765L829.4282228784111 437.6655142537765Q825.17959975977 437.6655142537765 820.3998987512988 438.1965921436066Q815.6201977428276 438.72767003343677 811.1650443336971 439.5832955226075L811.1650443336971 439.5832955226075L811.1650443336971 522.8445069170873L793.5214566604516 522.8445069170873ZM939.6858936725891 421.939707849362L939.6858936725891 421.939707849362Q959.6603231956447 421.939707849362 970.4884112827369 434.36102960594457Q981.316499369829 446.7823513625271 981.316499369829 472.06755978388395L981.316499369829 472.06755978388395L981.316499369829 478.23396417135604L910.8011573312725 478.23396417135604Q911.8633131109327 493.51720566757876 920.8916372380451 501.48337401503073Q929.9199613651573 509.44954236248276 946.2653586410402 509.44954236248276L946.2653586410402 509.44954236248276Q955.6182303674932 509.44954236248276 962.1976953359442 507.9743260018435Q968.7771603043954 506.49910964120426 972.1701579338655 504.7878586628627L972.1701579338655 504.7878586628627L974.5305041108884 519.6580395781064Q971.3440367719077 521.369290556448 963.053320825115 523.2575674980662Q954.7626048783223 525.1753487668973 944.3475773722092 525.1753487668973L944.3475773722092 525.1753487668973Q931.601708016286 525.1753487668973 921.9537930177053 521.2512732475968Q912.2763736919118 517.3271977282964 905.9034390139502 510.511698142143Q899.5305043359886 503.7257028832024 896.3440369970077 494.2843181751112Q893.1575696580269 484.81342913980717 893.1575696580269 473.77881076222553L893.1575696580269 473.77881076222553Q893.1575696580269 460.5903764981105 897.1996624861786 450.82444419067866Q901.2417553143301 441.0585118832468 907.8212202827812 434.6855772052852Q914.4006852512323 428.3126425273236 922.691401198025 425.1261751883428Q930.9821171448175 421.939707849362 939.6858936725891 421.939707849362ZM911.2142179122515 464.0128784547936L963.4663814060939 464.0128784547936Q963.4663814060939 451.4735393893599 956.8869164376429 444.1269619133764Q950.3074514691918 436.8098887646057 939.4793633820997 436.8098887646057L939.4793633820997 436.8098887646057Q933.3129589946276 436.8098887646057 928.3267276956669 439.14073061441576Q923.3109920694934 441.4715724642258 919.7114641495336 445.30713500188784Q916.1119362295738 449.14269753954994 913.9876246702534 454.0109115296595Q911.8633131109327 458.9086298469818 911.2142179122515 464.0128784547936L911.2142179122515 464.0128784547936ZM1027.6382930939017 522.8445069170873L1010.2012357111457 522.8445069170873L1010.2012357111457 391.3437205297038L1084.7586705778538 391.3437205297038L1084.7586705778538 406.2139014449475L1027.6382930939017 406.2139014449475L1027.6382930939017 447.2249162707189L1077.9726753189132 447.2249162707189L1077.9726753189132 461.8885668954731L1027.6382930939017 461.8885668954731L1027.6382930939017 522.8445069170873ZM1129.8117782317765 391.3437205297038L1150.4057986263006 456.7843182876613L1170.7932887303352 391.3437205297038L1187.168190333431 391.3437205297038Q1191.416813452072 422.352768430341 1193.216577412052 454.86653701883023Q1195.0163413720318 487.3803056073195 1196.5210620598837 522.8445069170873L1196.5210620598837 522.8445069170873L1179.5265695853195 522.8445069170873Q1179.2905349676173 511.3673236313138 1179.0840046771277 498.00186340392213Q1178.8774743866384 484.60689884931764 1178.5529267872978 470.38581313275523Q1178.2283791879572 456.13522308898 1177.9333359158293 441.4715724642258Q1177.6087883164885 426.83742616668434 1177.166223408297 413.0294010311009L1177.166223408297 413.0294010311009L1158.0474193744121 472.92318527305474L1142.7641778781892 472.92318527305474L1123.2323132633255 413.0294010311009Q1122.9962786456233 426.83742616668434 1122.7012353734954 441.3830594825874Q1122.3766877741548 455.9286927984905 1122.0521401748142 470.26779582390407Q1121.7275925754734 484.60689884931764 1121.4030449761328 498.00186340392213Q1121.108001704005 511.3673236313138 1120.871967086303 522.8445069170873L1120.871967086303 522.8445069170873L1103.8774746117385 522.8445069170873Q1104.52656981042 506.7056399316937 1105.3821952995904 489.71114745712947Q1106.2378207887614 472.7166549825653 1107.38848955006 455.9286927984905Q1108.5686626385714 439.14073061441576 1110.1618963080618 422.79533333853277Q1111.755129977552 406.420431735437 1113.6729112463831 391.3437205297038L1113.6729112463831 391.3437205297038L1129.8117782317765 391.3437205297038ZM1401.0745626261232 431.4991098663044L1401.0745626261232 431.4991098663044Q1401.0745626261232 443.5958840235463 1394.7016279481618 452.8602427683608Q1388.3286932702001 462.0950971859626 1377.5006051831078 467.1993457937744L1377.5006051831078 467.1993457937744Q1380.6870725220888 472.2740900743735 1384.6111480413892 478.7650420611862Q1388.5352235606897 485.2559940479989 1392.5773163888412 492.5730671967696Q1396.6194092169926 499.8901403455404 1400.543484736293 507.6497784025028Q1404.4675602555935 515.4094164594653 1407.8900622122767 522.8445069170873L1407.8900622122767 522.8445069170873L1389.1843187593709 522.8445069170873Q1382.8113840814094 507.5612654208645 1375.2582763149362 493.51720566757876Q1367.734672875676 479.5026502415058 1360.712642999033 470.7988737137342L1360.712642999033 470.7988737137342Q1359.4439569288834 471.0054040042237 1356.9950977702222 471.0054040042237Q1354.546238611561 471.0054040042237 1353.720117449603 471.0054040042237L1353.720117449603 471.0054040042237L1338.8499365343594 471.0054040042237L1338.8499365343594 522.8445069170873L1321.2063488611138 522.8445069170873L1321.2063488611138 393.2615017985348Q1324.3928162000948 392.4058763093641 1328.5234220098846 391.7862854378956Q1332.6835321468873 391.1371902392143 1337.0206682471667 390.8126426398737Q1341.387308674659 390.48809504053304 1345.6359317933002 390.2815647500436Q1349.884554911941 390.07503445955405 1353.2775525414113 390.07503445955405L1353.2775525414113 390.07503445955405Q1377.087544602129 390.07503445955405 1389.0663014505199 400.4900619656672Q1401.0745626261232 410.90508947178034 1401.0745626261232 431.4991098663044ZM1354.7822732292634 405.15174566528725L1354.7822732292634 405.15174566528725Q1349.884554911941 405.15174566528725 1345.3113841939594 405.2697629741384Q1340.7382134759778 405.3582759557768 1338.8499365343594 405.8008408639685L1338.8499365343594 405.8008408639685L1338.8499365343594 456.57778799717175L1350.0910852024306 456.57778799717175Q1357.732705950542 456.57778799717175 1363.8105973563756 455.5156322175115Q1369.8589844349965 454.45347643785124 1374.196120535276 451.5620523709983Q1378.5627609627682 448.70013263135814 1380.8936028125781 443.7139013323974Q1383.2244446623881 438.72767003343677 1383.2244446623881 430.64348437713363L1383.2244446623881 430.64348437713363Q1383.2244446623881 423.00186362902224 1380.8936028125781 418.10414531169994Q1378.5627609627682 413.2359313215904 1374.727198425106 410.37401158195024Q1370.921140214657 407.4825875150973 1365.6988742979938 406.3319187537986Q1360.5061127085437 405.15174566528725 1354.7822732292634 405.15174566528725ZM1469.9081580135512 510.3051678516535L1469.9081580135512 510.3051678516535Q1476.487622982002 510.3051678516535 1481.709888898665 509.89210727067456Q1486.9026504881153 509.44954236248276 1490.2956481175854 508.82995149101424L1490.2956481175854 508.82995149101424L1490.2956481175854 479.5026502415058Q1486.9026504881153 478.44049446184556 1482.122949479644 477.8209035903771Q1477.343248471173 477.1718083916958 1472.0324695728716 477.1718083916958L1472.0324695728716 477.1718083916958Q1467.1347512555494 477.1718083916958 1462.473067555929 477.9094165720154Q1457.811383856309 478.647024752335 1454.1823516091363 480.5648060211661Q1450.5828236891768 482.4825872899971 1448.2519818393666 485.5510373201268Q1445.891635662344 488.6489916774692 1445.891635662344 493.3106753770893L1445.891635662344 493.3106753770893Q1445.891635662344 502.8700773940317 1452.3825876491567 506.5876226228426Q1458.8735396359693 510.3051678516535 1469.9081580135512 510.3051678516535ZM1468.1969070352093 421.939707849362L1468.1969070352093 421.939707849362Q1479.2610297400038 421.939707849362 1486.784633179264 424.7131146073638Q1494.337740945737 427.45701703815286 1498.9994246453573 432.35473535547516Q1503.6906126721901 437.2229493455847 1505.608393941021 444.2449792222276Q1507.4966708826391 451.26700909887046 1507.4966708826391 459.5282207184503L1507.4966708826391 459.5282207184503L1507.4966708826391 521.1332559387456Q1501.35977082238 522.1954117184059 1491.2692909156076 523.700132406258Q1481.178811008835 525.1753487668973 1470.5572532122324 525.1753487668973L1470.5572532122324 525.1753487668973Q1462.473067555929 525.1753487668973 1454.8314468078179 523.7886453878964Q1447.1898260597063 522.4314463361081 1441.2299519627238 518.9204313977868Q1435.2700778657413 515.4094164594653 1431.6705499457814 509.2430120719933Q1428.0710220258215 503.07660768452115 1428.0710220258215 493.51720566757876L1428.0710220258215 493.51720566757876Q1428.0710220258215 485.01995943029664 1431.7885672546327 479.1781026421652Q1435.5061124834433 473.33624585403373 1441.347969271575 469.73671793407397Q1447.1898260597063 466.13719001411414 1454.7134294989667 464.5439563446237Q1462.2665372654396 462.95072267513336 1469.9081580135512 462.95072267513336L1469.9081580135512 462.95072267513336Q1480.323185519664 462.95072267513336 1490.2956481175854 465.2815645249434L1490.2956481175854 465.2815645249434L1490.2956481175854 460.38384620762105Q1490.2956481175854 455.9286927984905 1489.3515096467763 451.79808698870056Q1488.3778668487544 447.6379768516979 1485.722477399604 444.2449792222276Q1483.0670879504532 440.8519815927573 1478.5234215596843 438.8161830150751Q1473.9502508417027 436.8098887646057 1466.7216906745703 436.8098887646057L1466.7216906745703 436.8098887646057Q1457.575349238607 436.8098887646057 1450.7893539796662 438.0785748347555Q1444.0033587207256 439.3472609049052 1440.374326473553 440.64545130226776L1440.374326473553 440.64545130226776L1438.2500149142325 426.1883309680031Q1441.8790471614052 424.4770799896615 1450.258276089836 423.20839391951176Q1458.6375050182671 421.939707849362 1468.1969070352093 421.939707849362ZM1595.4490703039519 507.5612654208645L1595.4490703039519 445.1006047113984Q1592.4691332554605 442.32719795339654 1586.74529377618 439.8783387947354Q1581.0214542968997 437.458983963287 1574.8550499094279 437.458983963287L1574.8550499094279 437.458983963287Q1567.833020032785 437.458983963287 1562.8467887338243 440.202886394076Q1557.8605574348635 442.9762931520778 1554.6740900958825 447.755994160549Q1551.487622756902 452.53569516902024 1549.98290206905 459.23317744632243Q1548.5076857084107 465.90115539641187 1548.5076857084107 473.572280471736L1548.5076857084107 473.572280471736Q1548.5076857084107 490.7733032367898 1556.5918713647138 500.12617496324265Q1564.646552693804 509.44954236248276 1577.5989523402168 509.44954236248276L1577.5989523402168 509.44954236248276Q1584.2079216358807 509.44954236248276 1588.7515880266496 508.82995149101424Q1593.3247587446313 508.180856292333 1595.4490703039519 507.5612654208645L1595.4490703039519 507.5612654208645ZM1595.4490703039519 427.8995819463446L1595.4490703039519 378.5978511737806L1613.0926579771972 375.6179141252893L1613.0926579771972 520.0711001590854Q1607.3393141707043 521.782351137427 1598.429007352443 523.4936021157685Q1589.518700534182 525.1753487668973 1577.5989523402168 525.1753487668973L1577.5989523402168 525.1753487668973Q1566.977394543614 525.1753487668973 1558.2736180158427 521.5758208469374Q1549.5698414880708 517.9467885997649 1543.4034371005987 511.27881064967545Q1537.2370327131266 504.5813283723732 1533.8440350836563 495.0219263554308Q1530.451037454186 485.46252433848844 1530.451037454186 473.572280471736L1530.451037454186 473.572280471736Q1530.451037454186 462.0950971859626 1533.3129571938264 452.62420815065855Q1536.1748769334663 443.1828234425673 1541.72169044947 436.3968281836267Q1547.2389996382608 429.5813285974734 1554.9986376952234 425.7752703870241Q1562.7287714249733 421.939707849362 1572.7307383501072 421.939707849362L1572.7307383501072 421.939707849362Q1580.5788893887081 421.939707849362 1586.5387634856907 423.85748911819303Q1592.4691332554605 425.7752703870241 1595.4490703039519 427.8995819463446L1595.4490703039519 427.8995819463446ZM1672.5733816381721 408.9873082029493L1672.5733816381721 408.9873082029493Q1667.0560724493814 408.9873082029493 1663.0139796212297 405.15174566528725Q1658.9718867930783 401.34568745483796 1658.9718867930783 394.7367181591741L1658.9718867930783 394.7367181591741Q1658.9718867930783 388.157253190723 1663.0139796212297 384.3511949802737Q1667.0560724493814 380.51563244261166 1672.5733816381721 380.51563244261166L1672.5733816381721 380.51563244261166Q1678.2972211174524 380.51563244261166 1682.2212966367529 384.3511949802737Q1686.1748764832662 388.157253190723 1686.1748764832662 394.7367181591741L1686.1748764832662 394.7367181591741Q1686.1748764832662 401.34568745483796 1682.2212966367529 405.15174566528725Q1678.2972211174524 408.9873082029493 1672.5733816381721 408.9873082029493ZM1668.1182282290415 484.81342913980717L1668.1182282290415 438.93420032392623L1639.646552468704 438.93420032392623L1639.646552468704 424.270549699172L1685.5257812845848 424.270549699172L1685.5257812845848 484.81342913980717Q1685.5257812845848 499.4770797645614 1689.5678741127363 504.46331106352204Q1693.609966940888 509.44954236248276 1701.6646482699784 509.44954236248276L1701.6646482699784 509.44954236248276Q1707.8310526574505 509.44954236248276 1713.0238142469007 507.9743260018435Q1718.2460801635634 506.49910964120426 1721.226017212055 504.7878586628627L1721.226017212055 504.7878586628627L1723.7633893523544 519.6580395781064Q1722.4947032822047 520.3071347767877 1720.1638614323947 521.2512732475968Q1717.8035152553716 522.1954117184059 1714.7350652252421 523.0510372075767Q1711.6666151951126 523.9066626967474 1707.9490699663015 524.5557578954288Q1704.2315247374904 525.1753487668973 1700.1894319093392 525.1753487668973L1700.1894319093392 525.1753487668973Q1690.8365601828862 525.1753487668973 1684.6701557954138 522.6379766265977Q1678.503751407942 520.0711001590854 1674.786206179131 514.9963558784864Q1671.0686609503202 509.89210727067456 1669.593444589681 502.3389995042015Q1668.1182282290415 494.81539606494135 1668.1182282290415 484.81342913980717L1668.1182282290415 484.81342913980717ZM1832.1032788777015 473.572280471736L1832.1032788777015 473.572280471736Q1832.1032788777015 485.2559940479989 1828.7987942298696 494.6973787560902Q1825.5238139092503 504.1387634641814 1819.5639398122676 510.95426305033476Q1813.633570042498 517.7402583092753 1805.3428540957052 521.4578035380863Q1797.052138148913 525.1753487668973 1787.2862058414808 525.1753487668973L1787.2862058414808 525.1753487668973Q1777.7268038245384 525.1753487668973 1769.554105186597 521.4578035380863Q1761.3519022214427 517.7402583092753 1755.421532451673 510.95426305033476Q1749.4616583546904 504.1387634641814 1746.186678034071 494.6973787560902Q1742.8821933862391 485.2559940479989 1742.8821933862391 473.572280471736L1742.8821933862391 473.572280471736Q1742.8821933862391 461.8885668954731 1746.186678034071 452.3291648785307Q1749.4616583546904 442.76976286158833 1755.421532451673 436.0722805842861Q1761.3519022214427 429.37479830698385 1769.554105186597 425.6572530781729Q1777.7268038245384 421.939707849362 1787.2862058414808 421.939707849362L1787.2862058414808 421.939707849362Q1797.052138148913 421.939707849362 1805.3428540957052 425.6572530781729Q1813.633570042498 429.37479830698385 1819.5639398122676 436.0722805842861Q1825.5238139092503 442.76976286158833 1828.7987942298696 452.3291648785307Q1832.1032788777015 461.8885668954731 1832.1032788777015 473.572280471736ZM1814.046630623477 473.572280471736L1814.046630623477 473.572280471736Q1814.046630623477 456.7843182876613 1806.8180704563447 447.1068989618677Q1799.5895102892123 437.458983963287 1787.2862058414808 437.458983963287L1787.2862058414808 437.458983963287Q1775.159927357026 437.458983963287 1768.049384498745 447.1068989618677Q1760.9388416404636 456.7843182876613 1760.9388416404636 473.572280471736L1760.9388416404636 473.572280471736Q1760.9388416404636 490.12420803810846 1768.049384498745 499.801627363902Q1775.159927357026 509.44954236248276 1787.2862058414808 509.44954236248276L1787.2862058414808 509.44954236248276Q1799.5895102892123 509.44954236248276 1806.8180704563447 499.801627363902Q1814.046630623477 490.12420803810846 1814.046630623477 473.572280471736Z " fill="#fce77d" transform="matrix(0.47759317554882524,0,0,0.47759317554882524,0,84.78795164417689)"/></g></svg>